<svg width="35" height="21" viewBox="0 0 35 21" fill="none" xmlns="http://www.w3.org/2000/svg">
<path d="M33.6785 1.38324C33.9193 0.585218 33.6785 0 32.5398 0H28.7675C27.8077 0 27.3691 0.506274 27.1282 1.06232C27.1282 1.06232 25.2103 5.72861 22.4925 8.75423C21.6152 9.63463 21.2144 9.91265 20.7362 9.91265C20.4971 9.91265 20.1497 9.63463 20.1497 8.83661V1.38324C20.1497 0.425613 19.8727 0 19.0729 0H13.1453C12.5467 0 12.1854 0.442775 12.1854 0.864955C12.1854 1.7711 13.5443 1.98047 13.6837 4.53415V10.074C13.6837 11.2873 13.4652 11.5087 12.9836 11.5087C11.7055 11.5087 8.59551 6.82525 6.74981 1.4639C6.3903 0.42218 6.02735 0.00171687 5.06408 0.00171687H1.29354C0.215017 0.00171687 0 0.50799 0 1.06403C0 2.06285 1.27806 7.00544 5.95339 13.5424C9.07027 18.0062 13.4583 20.426 17.4559 20.426C19.8521 20.426 20.1479 19.8888 20.1479 18.9621V15.5881C20.1479 14.5137 20.3767 14.2975 21.1353 14.2975C21.6926 14.2975 22.6525 14.5789 24.8903 16.7293C27.4465 19.2796 27.8696 20.4243 29.3059 20.4243H33.0765C34.1533 20.4243 34.6917 19.8871 34.3821 18.8265C34.0432 17.771 32.8219 16.2351 31.2015 14.4176C30.3208 13.3811 29.0049 12.2655 28.6041 11.7078C28.0451 10.9887 28.2068 10.6712 28.6041 10.0328C28.6058 10.0345 33.2003 3.57823 33.6785 1.38324Z" fill="currentColor"/>
</svg>
